<mxfile host="app.diagrams.net" modified="2024-02-23T11:48:41.568Z" agent="Mozilla/5.0 (Windows NT 10.0; Win64; x64) AppleWebKit/537.36 (KHTML, like Gecko) Chrome/121.0.0.0 Safari/537.36" version="23.1.5" etag="5yW8SQJ2FKjC1v2ZddCQ" type="github">
  <diagram name="PÃ¡gina-1" id="15WnFSCH9kyaNsi8eSXD">
    <mxGraphModel>
      <root>
        <mxCell id="0" />
        <mxCell id="1" parent="0" />
      </root>
    </mxGraphModel>
  </diagram>
</mxfile>
